#!OML:ASF Y:\EmotionMaleHayes\Project 1\Capture day 1\Session 1\Male1.ASF
:FULLY-SPECIFIED
:DEGREES
202
root -26.4736 16.3515 1.6874 -37.6269 81.05 -39.4143
lowerback 10.0287 3.99544 5.8061
upperback 3.20274 5.98872 0.685112
thorax -1.74058 3.04283 -3.18476
lowerneck -21.084 1.06582 1.55116
upperneck 20.0975 1.37859 -1.30787
head 9.8885 0.630905 -0.510845
rclavicle -2.61402e-014 3.38928e-014
rhumerus -24.7978 16.0983 -92.7703
rradius 40.6418
rwrist -3.73519
rhand -13.5143 -31.0121
rfingers 7.12502
rthumb 12.5974 -60.6122
lclavicle -2.61402e-014 3.38928e-014
lhumerus -42.2787 2.21413 85.3121
lradius 21.9564
lwrist -19.112
lhand -13.2006 -27.7902
lfingers 7.12502
lthumb 12.8998 1.79115
rfemur 18.1974 -2.69054 23.4591
rtibia 6.12882
rfoot -27.9782 0.733479
rtoes 3.67628
lfemur -29.3268 5.29681 -4.45565
ltibia 16.7313
lfoot -8.48594 8.0656
ltoes -15.047
203
root -26.3568 16.329 1.6763 -37.215 80.9907 -39.0603
lowerback 10.1273 3.99879 5.79441
upperback 3.13777 5.99533 0.571949
thorax -1.85046 3.04051 -3.30783
lowerneck -21.1614 1.10311 1.69642
upperneck 20.1517 1.38267 -1.308
head 9.92305 0.643791 -0.534046
rclavicle 4.21051e-014 2.34566e-014
rhumerus -24.7037 16.0588 -92.9848
rradius 40.6283
rwrist -4.0352
rhand -12.9295 -31.3951
rfingers 7.12502
rthumb 13.1611 -60.9597
lclavicle 4.21051e-014 2.34566e-014
lhumerus -42.3653 2.25046 85.0977
lradius 21.6934
lwrist -19.2813
lhand -12.6268 -27.5058
lfingers 7.12502
lthumb 13.4529 2.03973
rfemur 18.6456 -1.96386 23.7192
rtibia 6.04362
rfoot -28.2539 0.247276
rtoes 4.49169
lfemur -29.5848 5.47216 -4.51877
ltibia 16.7246
lfoot -8.05036 8.35345
ltoes -14.8418
204
root -26.2372 16.3065 1.66361 -36.6829 80.7902 -38.5477
lowerback 10.0797 4.04737 5.8056
upperback 3.22695 6.05506 0.527333
thorax -1.71941 3.07779 -3.3561
lowerneck -21.2286 1.10298 1.70063
upperneck 20.0124 1.36425 -1.26861
head 9.88504 0.638451 -0.523489
rclavicle 3.0265e-014 4.96962e-015
rhumerus -24.4281 15.926 -92.957
rradius 40.4014
rwrist -3.91805
rhand -10.4585 -31.697
rfingers 7.12502
rthumb 15.5421 -61.0925
lclavicle 3.0265e-014 4.96962e-015
lhumerus -42.291 2.22097 85.102
lradius 21.5811
lwrist -19.3012
lhand -16.3857 -32.064
lfingers 7.12502
lthumb 9.82809 -2.31334
rfemur 19.1021 -1.21814 24.0538
rtibia 6.02493
rfoot -28.479 -0.163113
rtoes 5.16375
lfemur -29.8086 5.91052 -4.55328
ltibia 17.0392
lfoot -7.95877 8.21902
ltoes -14.6596
205
root -26.116 16.282 1.64935 -36.0972 80.5015 -38.0556
lowerback 10.0302 4.13279 5.76635
upperback 3.22205 6.16246 0.584831
thorax -1.6977 3.13122 -3.28094
lowerneck -21.2864 1.14008 1.6662
upperneck 19.9509 1.42623 -1.28178
head 9.87449 0.661691 -0.513325
rclavicle -3.93345e-014 -5.06901e-015
rhumerus -24.4416 16.3319 -93.0538
rradius 40.9433
rwrist -4.24474
rhand -12.9379 -32.2152
rfingers 7.12502
rthumb 13.153 -61.7804
lclavicle -3.93345e-014 -5.06901e-015
lhumerus -42.4462 2.18328 85.2673
lradius 21.5973
lwrist -19.6216
lhand -13.6055 -29.4064
lfingers 7.12502
lthumb 12.5095 0.19915
rfemur 19.3653 -0.700869 24.2649
rtibia 6.16492
rfoot -28.6517 -0.380104
rtoes 4.14526
lfemur -30.0433 6.21555 -4.48385
ltibia 17.4955
lfoot -8.11471 8.15824
ltoes -13.9333
206
root -25.9912 16.2581 1.63199 -35.9403 80.2384 -38.0137
lowerback 9.99494 4.17302 5.82367
upperback 3.17703 6.21998 0.614423
thorax -1.71684 3.15759 -3.28635
lowerneck -21.2093 1.06544 1.53927
upperneck 19.8603 1.33868 -1.18235
head 9.82512 0.623333 -0.470462
rclavicle 5.71506e-016 0
rhumerus -24.4195 16.4164 -93.1175
rradius 41.1151
rwrist -4.25939
rhand -13.6767 -32.0729
rfingers 7.12502
rthumb 12.4408 -61.6826
lclavicle 5.71506e-016 0
lhumerus -42.5911 2.21095 85.2775
lradius 21.5779
lwrist -19.951
lhand -14.1646 -29.5578
lfingers 7.12502
lthumb 11.9704 0.0799691
rfemur 19.5626 -0.362237 24.4015
rtibia 6.38699
rfoot -28.735 -0.641944
rtoes 1.83853
lfemur -30.3083 6.46289 -4.42895
ltibia 18.1454
lfoot -8.39884 8.21532
ltoes -13.9567
207
root -25.862 16.2312 1.60903 -35.0846 80.0241 -37.1768
lowerback 10.087 4.22102 5.81832
upperback 3.14302 6.28762 0.558274
thorax -1.79036 3.18773 -3.35779
lowerneck -21.3007 1.07554 1.538
upperneck 19.7624 1.32116 -1.07652
head 9.80581 0.626169 -0.435502
rclavicle 4.70374e-014 -1.98785e-014
rhumerus -24.4277 16.3661 -93.1709
rradius 41.1286
rwrist -4.1365
rhand -13.6602 -31.7714
rfingers 7.12502
rthumb 12.4567 -61.3802
lclavicle 4.70374e-014 -1.98785e-014
lhumerus -42.717 2.24843 85.217
lradius 21.6051
lwrist -19.9377
lhand -11.8174 -27.4545
lfingers 7.12502
lthumb 14.233 2.03785
rfemur 19.9076 -0.172886 24.2031
rtibia 6.55772
rfoot -28.7255 -0.567741
rtoes -0.145767
lfemur -30.475 6.72422 -4.58387
ltibia 18.9732
lfoot -8.77093 8.24189
ltoes -13.0753
208
root -25.747 16.1986 1.59693 -35.021 79.9328 -37.2285
lowerback 10.2701 4.21904 5.77209
upperback 3.03933 6.2913 0.484323
thorax -1.99504 3.17924 -3.43215
lowerneck -21.5182 1.10745 1.75387
upperneck 19.9205 1.31094 -1.1492
head 9.90342 0.628767 -0.497379
rclavicle 2.23881e-014 1.00386e-014
rhumerus -24.4447 16.2613 -93.3136
rradius 41.1394
rwrist -4.01648
rhand -13.7203 -31.5936
rfingers 7.12502
rthumb 12.3987 -61.2059
lclavicle 2.23881e-014 1.00386e-014
lhumerus -42.8542 2.01941 85.2163
lradius 21.6928
lwrist -19.6138
lhand -11.9281 -27.2389
lfingers 7.12502
lthumb 14.1263 2.26093
rfemur 20.182 0.200772 24.3493
rtibia 6.73456
rfoot -28.7555 -0.766787
rtoes -1.42292
lfemur -30.9821 7.04273 -4.70173
ltibia 20.1895
lfoot -9.30124 7.78452
ltoes -11.3259
209
root -25.6599 16.1567 1.60184 -37.3735 80.194 -40.0087
lowerback 10.3747 4.00877 5.524
upperback 2.84374 6.00058 0.600801
thorax -2.32403 3.01686 -3.16881
lowerneck -21.751 1.2239 1.87318
upperneck 19.975 1.43818 -1.19444
head 9.96844 0.689498 -0.513594
rclavicle -8.07563e-015 2.78299e-015
rhumerus -24.3976 16.4769 -93.413
rradius 41.1439
rwrist -3.95659
rhand -13.7626 -31.3439
rfingers 7.12502
rthumb 12.358 -60.9587
lclavicle -8.07563e-015 2.78299e-015
lhumerus -42.897 2.03744 85.2573
lradius 21.8227
lwrist -19.2386
lhand -11.9209 -27.2509
lfingers 7.12502
lthumb 14.1332 2.24845
rfemur 20.1516 0.83895 25.2804
rtibia 6.95396
rfoot -28.9021 -1.9453
rtoes -2.4268
lfemur -32.3751 7.4021 -4.82481
ltibia 22.122
lfoot -9.71569 6.95244
ltoes -10.1792
210
root -25.5237 16.1293 1.58077 -36.3212 79.9558 -38.9897
lowerback 10.4127 4.07155 5.39529
upperback 2.8264 6.07235 0.596911
thorax -2.3696 3.05043 -3.1139
lowerneck -21.8147 1.26702 1.86238
upperneck 19.907 1.49661 -1.19221
head 9.95652 0.714648 -0.502277
rclavicle 1.6847e-014 1.35174e-014
rhumerus -24.4407 16.5884 -93.4405
rradius 40.9939
rwrist -4.10572
rhand -13.0489 -31.2356
rfingers 7.12502
rthumb 13.0461 -60.8076
lclavicle 1.6847e-014 1.35174e-014
lhumerus -43.011 2.11625 85.2388
lradius 22.0516
lwrist -19.024
lhand -11.2242 -27.4098
lfingers 7.12502
lthumb 14.8045 2.04143
rfemur 20.5641 1.64575 25.5095
rtibia 7.14128
rfoot -28.8884 -2.4919
rtoes -4.04451
lfemur -32.4297 7.535 -4.90614
ltibia 23.2352
lfoot -10.3151 6.68966
ltoes -8.04154
211
root -25.3848 16.1035 1.55551 -34.9011 79.8366 -37.5956
lowerback 10.389 4.11889 5.21864
upperback 2.81814 6.11074 0.505759
thorax -2.37028 3.06916 -3.11318
lowerneck -21.7841 1.31086 1.86307
upperneck 19.7684 1.53234 -1.10538
head 9.9014 0.740792 -0.46678
rclavicle -4.23411e-014 1.59028e-015
rhumerus -24.434 16.6117 -93.4958
rradius 40.7401
rwrist -4.32586
rhand -10.1299 -32.9816
rfingers 7.12502
rthumb 15.8586 -62.3521
lclavicle -4.23411e-014 1.59028e-015
lhumerus -43.1571 2.20286 85.1321
lradius 22.2987
lwrist -19.0168
lhand -10.339 -27.3181
lfingers 7.12502
lthumb 15.6571 2.06835
rfemur 20.9449 2.2745 25.4722
rtibia 7.35407
rfoot -28.864 -2.73353
rtoes -4.62009
lfemur -32.4645 7.62106 -5.19162
ltibia 24.2581
lfoot -10.3853 6.47105
ltoes -3.83939
212
root -25.2436 16.0792 1.53167 -32.1818 79.7743 -35.0144
lowerback 10.1896 4.18715 4.77856
upperback 2.79868 6.13528 0.327684
thorax -2.30584 3.08255 -3.0407
lowerneck -21.8896 1.35382 1.93518
upperneck 19.8904 1.55893 -1.06819
head 9.96477 0.763211 -0.461022
rclavicle -3.68746e-014 -1.74931e-014
rhumerus -24.4768 16.6543 -93.6266
rradius 40.7906
rwrist -3.87015
rhand -12.7109 -30.943
rfingers 7.12502
rthumb 13.3718 -60.4939
lclavicle -3.68746e-014 -1.74931e-014
lhumerus -43.1732 2.16873 85.0544
lradius 22.3681
lwrist -19.0293
lhand -10.2278 -27.0483
lfingers 7.12502
lthumb 15.7643 2.32974
rfemur 21.1209 2.66755 24.9679
rtibia 7.7059
rfoot -28.8455 -2.64099
rtoes -4.56636
lfemur -32.6565 7.86197 -5.74769
ltibia 25.2914
lfoot -9.17673 7.04904
ltoes 4.17619
213
root -25.1014 16.0579 1.50762 -30.136 79.7373 -33.0488
lowerback 10.1901 4.22807 4.40843
upperback 2.72527 6.14579 0.193035
thorax -2.40596 3.08289 -2.98158
lowerneck -21.9601 1.33417 1.8309
upperneck 19.8936 1.50637 -0.834194
head 9.97498 0.758849 -0.368765
rclavicle 9.19379e-015 6.16232e-015
rhumerus -24.7176 16.5978 -93.7497
rradius 40.8525
rwrist -3.26543
rhand -13.3111 -31.285
rfingers 7.12502
rthumb 12.7933 -60.873
lclavicle 9.19379e-015 6.16232e-015
lhumerus -43.2041 1.95676 85.1114
lradius 22.3759
lwrist -18.8495
lhand -10.7668 -26.8365
lfingers 7.12502
lthumb 15.2451 2.58172
rfemur 21.4297 2.89763 24.4829
rtibia 7.80921
rfoot -28.5042 -2.70959
rtoes -5.89825
lfemur -32.8546 8.00081 -6.21451
ltibia 26.2977
lfoot -7.64559 7.4735
ltoes 1.47201
214
root -24.9563 16.0395 1.47854 -29.4689 79.6675 -32.3724
lowerback 10.381 4.23297 4.38433
upperback 2.62103 6.15546 0.079867
thorax -2.60837 3.07907 -3.10924
lowerneck -21.7922 1.36316 1.76807
upperneck 19.6742 1.52081 -0.646017
head 9.86448 0.782939 -0.29128
rclavicle 1.58034e-014 1.78906e-015
rhumerus -25.0879 16.522 -93.9685
rradius 40.8465
rwrist -3.48403
rhand -13.8999 -31.9599
rfingers 7.12502
rthumb 12.2257 -61.5826
lclavicle 1.58034e-014 1.78906e-015
lhumerus -43.2922 1.74463 85.0846
lradius 22.3772
lwrist -18.653
lhand -11.1996 -26.8567
lfingers 7.12502
lthumb 14.8282 2.59276
rfemur 21.848 2.99644 24.1913
rtibia 7.89654
rfoot -28.0751 -2.60984
rtoes -7.24603
lfemur -33.2143 8.32374 -6.55314
ltibia 27.6388
lfoot -7.26906 7.51505
ltoes -1.54313
215
root -24.805 16.0245 1.44557 -28.1825 79.4878 -31.1193
lowerback 10.2734 4.28582 4.25459
upperback 2.66899 6.2031 0.00216167
thorax -2.50054 3.10742 -3.11032
lowerneck -21.8014 1.45974 1.825
upperneck 19.427 1.61925 -0.606188
head 9.77966 0.835259 -0.272949
rclavicle -6.13748e-014 2.5842e-015
rhumerus -25.2041 16.5284 -94.0241
rradius 40.8252
rwrist -3.67032
rhand -13.4866 -32.0614
rfingers 7.12502
rthumb 12.6241 -61.6599
lclavicle -6.13748e-014 2.5842e-015
lhumerus -43.1332 1.77151 85.0175
lradius 22.3378
lwrist -18.6927
lhand -11.3382 -26.9194
lfingers 7.12502
lthumb 14.6947 2.53984
rfemur 22.061 3.08284 23.7401
rtibia 8.42457
rfoot -27.741 -2.24139
rtoes -8.27302
lfemur -33.7355 8.94572 -6.99105
ltibia 29.2886
lfoot -7.22882 7.51041
ltoes -4.49713
